<svg xmlns="http://www.w3.org/2000/svg" xmlns:svg="http://www.w3.org/2000/svg" xmlns:xlink="http://www.w3.org/1999/xlink" id="svg3128" width="45" height="45" version="1.0"><defs id="defs3130"><linearGradient id="linearGradient3785"><stop style="stop-color:#ad724b;stop-opacity:1" id="stop3787" offset="0"/><stop style="stop-color:#eca271;stop-opacity:1" id="stop3789" offset="1"/></linearGradient><filter id="filter3781"><feGaussianBlur id="feGaussianBlur3783" stdDeviation=".41"/></filter><linearGradient id="linearGradient3791" x1="30.75" x2="6.171" y1="29.75" y2="5.796" gradientUnits="userSpaceOnUse" xlink:href="#linearGradient3785"/></defs><metadata id="metadata3133"/><g id="layer1"><rect id="rect3775" width="41" height="41" x="2" y="2" rx="3.644" ry="3.644" style="fill:#000;fill-opacity:1;stroke:none;filter:url(#filter3781);opacity:.5" transform="matrix(1.0320006,0,0,1.0320006,-0.03251257,-0.03251257)"/><rect style="fill:url(#linearGradient3791);fill-opacity:1;stroke:#000;stroke-width:1.82222222999999994;stroke-miterlimit:4;stroke-opacity:1;stroke-dasharray:none" id="rect3136" width="41" height="41" x="2" y="2" rx="3.644" ry="3.644"/><path style="fill:#000;fill-opacity:1;fill-rule:evenodd;stroke:#000;stroke-width:1px;stroke-linecap:round;stroke-linejoin:miter;stroke-opacity:1" id="path3491" d="M 22,10 C 32.5,11 38.5,18 38,39 L 15,39 C 15,30 25,32.5 23,18"/><path style="fill:#000;fill-opacity:1;fill-rule:evenodd;stroke:#000;stroke-width:1px;stroke-linecap:round;stroke-linejoin:round;stroke-opacity:1" id="path3495" d="M 24,18 C 24.384461,20.911278 18.447064,25.368624 16,27 C 13,29 13.180802,31.342892 11,31 C 9.95828,30.055984 12.413429,27.962451 11,28 C 10,28 11.187332,29.231727 10,30 C 9,30 5.9968392,30.999999 6,26 C 6,24 12,14 12,14 C 12,14 13.885866,12.097871 14,10.5 C 13.273953,9.505631 13.5,8.5 13.5,7.5 C 14.5,6.5 16.5,10 16.5,10 L 18.5,10 C 18.5,10 19.281781,8.0080745 21,7 C 22,7 22,10 22,10"/><path style="opacity:1;fill:#000;fill-opacity:1;stroke:#fff;stroke-width:1;stroke-linecap:round;stroke-linejoin:round;stroke-miterlimit:4;stroke-dasharray:none;stroke-opacity:1" id="path3499" d="M 9 23.5 A 0.5 0.5 0 1 1 8,23.5 A 0.5 0.5 0 1 1 9 23.5 z" transform="translate(0.5, 2)"/><path style="opacity:1;fill:#000;fill-opacity:1;stroke:#fff;stroke-width:1;stroke-linecap:round;stroke-linejoin:round;stroke-miterlimit:4;stroke-dasharray:none;stroke-opacity:1" id="path3501" d="M 15 15.5 A 0.5 1.5 0 1 1 14,15.5 A 0.5 1.5 0 1 1 15 15.5 z" transform="matrix(0.866025, 0.5, -0.5, 0.866025, 9.69263, -5.17339)"/><path style="fill:#fff;fill-opacity:1;fill-rule:evenodd;stroke:none;stroke-width:1;stroke-linecap:square;stroke-linejoin:miter;stroke-miterlimit:4;stroke-dasharray:none;stroke-opacity:1" id="path8049" d="M 24.55,10.4 L 24.1,11.85 L 24.6,12 C 27.75,13 30.248526,14.490454 32.5,18.75 C 34.751474,23.009546 35.747157,29.05687 35.25,39 L 35.2,39.5 L 37.45,39.5 L 37.5,39 C 38.002843,28.94313 36.623526,22.146704 34.25,17.65625 C 31.876474,13.165796 28.461041,11.022853 25.0625,10.5 L 24.55,10.4 z"/></g></svg>